<?xml version="1.0" encoding="utf-8"?>
<svg id="master-artboard" viewBox="0 0 1114.8204345703125 826.4418334960938" version="1.1" xmlns="http://www.w3.org/2000/svg" x="0px" y="0px" width="1114.8204345703125px" height="826.4418334960938px" enable-background="new 0 0 1400 980"><rect id="ee-background" x="0" y="0" width="1114.8204345703125" height="826.4418334960938" style="fill: rgb(39, 156, 82); fill-opacity: 1; pointer-events: none;"/>
<path d="M 0 0 H 1400 V 980 H 0 V 0 Z" fill="#FFECD1" transform="matrix(1, 0, 0, 1, -108.11751556396484, -153.5582046508789)"/>
<path fill="#DAAF6A" d="M1257.9077,793.5888H142.0923c-8.7838,0-15.9044,7.1207-15.9044,15.9045&#10;&#9;c0,8.7838,7.1206,15.9044,15.9044,15.9044h1115.8154c8.7837,0,15.9044-7.1207,15.9044-15.9044&#10;&#9;C1273.8121,800.7095,1266.6914,793.5888,1257.9077,793.5888z" transform="matrix(1, 0, 0, 1, -108.11751556396484, -153.5582046508789)"/>
<g transform="matrix(1, 0, 0, 1, -108.11751556396484, -153.5582046508789)">
	<path fill="#F4DBB8" d="M1173.5712,433.6705h-55.6497c-2.3807,0-4.3109,1.93-4.3109,4.3109v14.8922&#10;&#9;&#9;c0,2.3808,1.9302,4.3109,4.3109,4.3109h55.6497c2.3809,0,4.3109-1.9301,4.3109-4.3109v-14.8922&#10;&#9;&#9;C1177.8821,435.6006,1175.952,433.6705,1173.5712,433.6705z"/>
	<path fill="#F4DBB8" d="M1101.2659,433.6705h-55.6497c-2.3809,0-4.3109,1.93-4.3109,4.3109v14.8922&#10;&#9;&#9;c0,2.3808,1.9301,4.3109,4.3109,4.3109h55.6497c2.3807,0,4.3108-1.9301,4.3108-4.3109v-14.8922&#10;&#9;&#9;C1105.5767,435.6006,1103.6466,433.6705,1101.2659,433.6705z"/>
	<path fill="#F4DBB8" d="M1137.4185,463.7978h-55.6497c-2.3807,0-4.3108,1.93-4.3108,4.3109v14.8922&#10;&#9;&#9;c0,2.3808,1.9301,4.3109,4.3108,4.3109h55.6497c2.3809,0,4.3109-1.9301,4.3109-4.3109v-14.8922&#10;&#9;&#9;C1141.7294,465.7278,1139.7993,463.7978,1137.4185,463.7978z"/>
</g>
<g transform="matrix(1, 0, 0, 1, -108.11751556396484, -153.5582046508789)">
	<path fill="#F4DBB8" d="M418.5593,369.9951h-55.6497c-2.3808,0-4.3109,1.93-4.3109,4.3109v14.8922&#10;&#9;&#9;c0,2.3808,1.9301,4.3109,4.3109,4.3109h55.6497c2.3808,0,4.3109-1.9301,4.3109-4.3109V374.306&#10;&#9;&#9;C422.8702,371.9252,420.9401,369.9951,418.5593,369.9951z"/>
	<path fill="#F4DBB8" d="M346.2539,369.9951h-55.6497c-2.3808,0-4.3109,1.93-4.3109,4.3109v14.8922&#10;&#9;&#9;c0,2.3808,1.9301,4.3109,4.3109,4.3109h55.6497c2.3808,0,4.3109-1.9301,4.3109-4.3109V374.306&#10;&#9;&#9;C350.5648,371.9252,348.6347,369.9951,346.2539,369.9951z"/>
	<path fill="#F4DBB8" d="M382.4066,400.1224h-55.6497c-2.3808,0-4.3109,1.93-4.3109,4.3109v14.8922&#10;&#9;&#9;c0,2.3808,1.9301,4.3109,4.3109,4.3109h55.6497c2.3808,0,4.3109-1.9301,4.3109-4.3109v-14.8922&#10;&#9;&#9;C386.7175,402.0524,384.7874,400.1224,382.4066,400.1224z"/>
</g>
<g transform="matrix(1, 0, 0, 1, -108.11751556396484, -153.5582046508789)">
	<path fill="#F4DBB8" d="M544.3233,562.15h-55.6497c-2.3808,0-4.3109,1.93-4.3109,4.3109v14.8922&#10;&#9;&#9;c0,2.3808,1.9301,4.3109,4.3109,4.3109h55.6497c2.3808,0,4.3109-1.9301,4.3109-4.3109v-14.8922&#10;&#9;&#9;C548.6342,564.08,546.7041,562.15,544.3233,562.15z"/>
	<path fill="#F4DBB8" d="M399.7125,562.15h-55.6497c-2.3808,0-4.3109,1.93-4.3109,4.3109v14.8922&#10;&#9;&#9;c0,2.3808,1.9301,4.3109,4.3109,4.3109h55.6497c2.3808,0,4.3109-1.9301,4.3109-4.3109v-14.8922&#10;&#9;&#9;C404.0234,564.08,402.0934,562.15,399.7125,562.15z"/>
	<path fill="#F4DBB8" d="M508.1706,592.2772h-55.6497c-2.3808,0-4.3109,1.9301-4.3109,4.3109v14.8922&#10;&#9;&#9;c0,2.3809,1.9301,4.3109,4.3109,4.3109h55.6497c2.3808,0,4.3109-1.9301,4.3109-4.3109v-14.8922&#10;&#9;&#9;C512.4815,594.2073,510.5514,592.2772,508.1706,592.2772z"/>
	<path fill="#F4DBB8" d="M435.8652,592.2772h-55.6497c-2.3808,0-4.3109,1.9301-4.3109,4.3109v14.8922&#10;&#9;&#9;c0,2.3809,1.9301,4.3109,4.3109,4.3109h55.6497c2.3808,0,4.3109-1.9301,4.3109-4.3109v-14.8922&#10;&#9;&#9;C440.1761,594.2073,438.246,592.2772,435.8652,592.2772z"/>
	<path fill="#F4DBB8" d="M363.5598,592.2772h-55.6497c-2.3808,0-4.3109,1.9301-4.3109,4.3109v14.8922&#10;&#9;&#9;c0,2.3809,1.9301,4.3109,4.3109,4.3109h55.6497c2.3808,0,4.3109-1.9301,4.3109-4.3109v-14.8922&#10;&#9;&#9;C367.8707,594.2073,365.9406,592.2772,363.5598,592.2772z"/>
</g>
<g transform="matrix(1, 0, 0, 1, -108.11751556396484, -153.5582046508789)">
	<path fill="#F4DBB8" d="M1169.6937,705.1372h-55.6497c-2.3809,0-4.3109,1.9301-4.3109,4.3109v14.8922&#10;&#9;&#9;c0,2.3808,1.9301,4.3109,4.3109,4.3109h55.6497c2.3809,0,4.3109-1.9301,4.3109-4.3109v-14.8922&#10;&#9;&#9;C1174.0046,707.0673,1172.0746,705.1372,1169.6937,705.1372z"/>
	<path fill="#F4DBB8" d="M1025.083,705.1372h-55.6497c-2.3808,0-4.3109,1.9301-4.3109,4.3109v14.8922&#10;&#9;&#9;c0,2.3808,1.9301,4.3109,4.3109,4.3109h55.6497c2.3807,0,4.3108-1.9301,4.3108-4.3109v-14.8922&#10;&#9;&#9;C1029.3938,707.0673,1027.4637,705.1372,1025.083,705.1372z"/>
	<path fill="#F4DBB8" d="M1133.541,735.2645h-55.6497c-2.3809,0-4.3109,1.93-4.3109,4.3109v14.8922&#10;&#9;&#9;c0,2.3808,1.9301,4.3109,4.3109,4.3109h55.6497c2.3809,0,4.3109-1.9301,4.3109-4.3109v-14.8922&#10;&#9;&#9;C1137.8519,737.1945,1135.9219,735.2645,1133.541,735.2645z"/>
	<path fill="#F4DBB8" d="M1061.2356,735.2645h-55.6496c-2.3809,0-4.3109,1.93-4.3109,4.3109v14.8922&#10;&#9;&#9;c0,2.3808,1.9301,4.3109,4.3109,4.3109h55.6496c2.3809,0,4.3109-1.9301,4.3109-4.3109v-14.8922&#10;&#9;&#9;C1065.5465,737.1945,1063.6165,735.2645,1061.2356,735.2645z"/>
	<path fill="#F4DBB8" d="M988.9302,735.2645h-55.6497c-2.3808,0-4.3109,1.93-4.3109,4.3109v14.8922&#10;&#9;&#9;c0,2.3808,1.9301,4.3109,4.3109,4.3109h55.6497c2.3809,0,4.3109-1.9301,4.3109-4.3109v-14.8922&#10;&#9;&#9;C993.2411,737.1945,991.3111,735.2645,988.9302,735.2645z"/>
</g>
<g transform="matrix(1, 0, 0, 1, -108.11751556396484, -153.5582046508789)">
	<path fill="#F4DBB8" d="M882.953,381.7521h-55.6497c-2.3808,0-4.3109,1.93-4.3109,4.3109v14.8922&#10;&#9;&#9;c0,2.3808,1.9301,4.3109,4.3109,4.3109h55.6497c2.3808,0,4.3109-1.9301,4.3109-4.3109V386.063&#10;&#9;&#9;C887.2639,383.6822,885.3338,381.7521,882.953,381.7521z"/>
	<path fill="#F4DBB8" d="M919.1057,411.8794H863.456c-2.3808,0-4.3109,1.93-4.3109,4.3109v14.8922&#10;&#9;&#9;c0,2.3808,1.9301,4.3109,4.3109,4.3109h55.6497c2.3809,0,4.3109-1.9301,4.3109-4.3109v-14.8922&#10;&#9;&#9;C923.4166,413.8094,921.4865,411.8794,919.1057,411.8794z"/>
	<path fill="#F4DBB8" d="M846.8003,411.8794h-55.6497c-2.3808,0-4.3109,1.93-4.3109,4.3109v14.8922&#10;&#9;&#9;c0,2.3808,1.9301,4.3109,4.3109,4.3109h55.6497c2.3808,0,4.3109-1.9301,4.3109-4.3109v-14.8922&#10;&#9;&#9;C851.1112,413.8094,849.1811,411.8794,846.8003,411.8794z"/>
</g>
<g transform="matrix(1, 0, 0, 1, -108.11751556396484, -153.5582046508789)">
	<path fill="#F4DBB8" d="M640.9851,274.9727h-55.6497c-2.3809,0-4.3109,1.93-4.3109,4.3109v14.8922&#10;&#9;&#9;c0,2.3808,1.9301,4.3109,4.3109,4.3109h55.6497c2.3808,0,4.3109-1.9301,4.3109-4.3109v-14.8922&#10;&#9;&#9;C645.296,276.9027,643.3659,274.9727,640.9851,274.9727z"/>
	<path fill="#F4DBB8" d="M677.1378,305.0999h-55.6497c-2.3808,0-4.3109,1.93-4.3109,4.3109v14.8922&#10;&#9;&#9;c0,2.3808,1.9301,4.3109,4.3109,4.3109h55.6497c2.3808,0,4.3109-1.9301,4.3109-4.3109v-14.8922&#10;&#9;&#9;C681.4487,307.03,679.5186,305.0999,677.1378,305.0999z"/>
	<path fill="#F4DBB8" d="M604.8324,305.0999h-55.6497c-2.3808,0-4.3109,1.93-4.3109,4.3109v14.8922&#10;&#9;&#9;c0,2.3808,1.9301,4.3109,4.3109,4.3109h55.6497c2.3809,0,4.3109-1.9301,4.3109-4.3109v-14.8922&#10;&#9;&#9;C609.1433,307.03,607.2133,305.0999,604.8324,305.0999z"/>
</g>
<g transform="matrix(1, 0, 0, 1, -108.11751556396484, -153.5582046508789)">
	<path fill="#F4DBB8" d="M863.267,670.49v17.7617c0,3.0235,2.451,5.4745,5.4745,5.4745h19.9169c3.0235,0,5.4745-2.451,5.4745-5.4745&#10;&#9;&#9;V670.49c0-3.0235-2.451-5.4745-5.4745-5.4745h-19.9169C865.718,665.0154,863.267,667.4665,863.267,670.49z"/>
	<path d="M 890.292112 679.370789 A 11.5921 11.5921 0 0 1 878.700012 690.962889 A 11.5921 11.5921 0 0 1 867.107912 679.370789 A 11.5921 11.5921 0 0 1 878.700012 667.778688 A 11.5921 11.5921 0 0 1 890.292112 679.370789 Z" fill="#FFF3E4"/>
	<path fill="#EFCB91" d="M885.6518,684.0981h-13.9036c-1.3054,0-2.3636-1.0582-2.3636-2.3636v-4.7272&#10;&#9;&#9;c0-1.3054,1.0582-2.3636,2.3636-2.3636h13.9036c1.3054,0,2.3636,1.0582,2.3636,2.3636v4.7272&#10;&#9;&#9;C888.0154,683.0399,886.9572,684.0981,885.6518,684.0981z"/>
	<path fill="#F4DBB8" d="M850.7027,731.4044h-7.0656c-17.0751,0-30.9669-13.8918-30.9669-30.9669V482.0929&#10;&#9;&#9;c0-10.2735-8.3592-18.6312-18.6326-18.6312h-7.1976c-1.6402,0-2.97-1.3299-2.97-2.9701c0-1.6402,1.3298-2.9701,2.97-2.9701h7.1976&#10;&#9;&#9;c13.5496,0,24.5728,11.0233,24.5728,24.5714v218.3446c0,13.8004,11.2263,25.0267,25.0267,25.0267h7.0656&#10;&#9;&#9;c13.8005,0,25.0267-11.2263,25.0267-25.0267v-21.0662c0-1.6402,1.3298-2.9701,2.9701-2.9701c1.6401,0,2.97,1.3299,2.97,2.9701&#10;&#9;&#9;v21.0662C881.6696,717.5126,867.7778,731.4044,850.7027,731.4044z"/>
</g>
<g transform="matrix(1, 0, 0, 1, -108.11751556396484, -153.5582046508789)">
	<path fill="#514835" d="M715.7262,154.6023h-31.4524c-32.8277,0-59.4397,26.6121-59.4397,59.4398v105.6854&#10;&#9;&#9;c0,12.8412,9.0704,23.5572,21.1519,26.1089v-23.6839l18.8051,24.2676h70.4178l18.8051-24.2676v23.6839&#10;&#9;&#9;c12.0815-2.5518,21.1519-13.2678,21.1519-26.1089V214.0421C775.1659,181.2144,748.5539,154.6023,715.7262,154.6023z"/>
	<path fill="#383023" d="M700,304.873c-28.4105,0-54.5139-9.812-75.1659-26.1974v41.0518c0,12.8412,9.0704,23.5572,21.1519,26.1089&#10;&#9;&#9;v-23.6839l18.8051,24.2676h70.4178l18.8051-24.2676v23.6839c12.0815-2.5518,21.1519-13.2678,21.1519-26.1089v-41.0518&#10;&#9;&#9;C754.5139,295.061,728.4105,304.873,700,304.873z"/>
</g>
<path fill="#00AFA0" d="M778.9146,393.709c-5.0584,0-10.1197-1.902-14.0209-5.7205c-9.0756-8.882-21.2459-18.3288-36.1732-28.0773&#10;&#9;c-9.2699-6.0547-11.8774-18.4782-5.8227-27.7481c6.0533-9.2699,18.4775-11.8774,27.7474-5.8234&#10;&#9;c17.1186,11.1799,31.3469,22.28,42.2932,32.9936c7.9139,7.7443,8.0503,20.4374,0.306,28.3499&#10;&#9;C789.3171,391.696,784.118,393.709,778.9146,393.709z" transform="matrix(1, 0, 0, 1, -108.11751556396484, -153.5582046508789)"/>
<path fill="#009E8B" d="M789.3663,388.4587c-17.7246-22.4127-48.21-42.1202-68.5802-51.9725&#10;&#9;c-2.9958,8.5094,0.0444,18.2717,7.9343,23.425c14.9273,9.7485,27.0977,19.1953,36.1732,28.0773&#10;&#9;c3.9012,3.8185,8.9625,5.7205,14.0209,5.7205c4.0787,0,8.1453-1.2553,11.6082-3.7225&#10;&#9;C790.1429,389.4785,789.7729,388.9728,789.3663,388.4587z" transform="matrix(1, 0, 0, 1, -108.11751556396484, -153.5582046508789)"/>
<g transform="matrix(1, 0, 0, 1, -108.11751556396484, -153.5582046508789)">
	<g>
		<path d="M 893.926575 168.4431 H 1230.059387 V 267.124298 H 893.926575 V 168.4431 Z" fill="#F4DBB8"/>
		<path d="M 913.971191 188.487701 H 1210.014801 V 247.0797 H 913.971191 V 188.487701 Z" fill="#FFECD1"/>
		<g>
			<path d="M 913.97119140625 188.48770141601562 L 913.97119140625 247.07969665527344 L 934.492919921875 247.07969665527344 L 968.3209838867188 188.48770141601562 Z" fill="#FFF3E4"/>
			<path d="M 943.840087890625 247.07969665527344 L 954.522705078125 247.07969665527344 L 988.3507080078125 188.48770141601562 L 977.668212890625 188.48770141601562 Z" fill="#FFF3E4"/>
			<path d="M 1069.5340576171875 188.48770141601562 L 1058.395263671875 207.78070068359375 L 1058.395263671875 247.07969665527344 L 1100.2464599609375 247.07969665527344 L 1134.0745849609375 188.48770141601562 Z" fill="#FFF3E4"/>
			<path d="M 1143.4217529296875 188.48770141601562 L 1109.5936279296875 247.07969665527344 L 1120.2762451171875 247.07969665527344 L 1154.1041259765625 188.48770141601562 Z" fill="#FFF3E4"/>
		</g>
		<path d="M 1051.970703 168.4431 H 1072.015303 V 267.124298 H 1051.970703 V 168.4431 Z" fill="#F4DBB8"/>
	</g>
	<g>
		<path d="M 169.940598 168.4431 H 506.07341 V 267.124298 H 169.940598 V 168.4431 Z" fill="#F4DBB8"/>
		<path d="M 189.985199 188.487701 H 486.028809 V 247.0797 H 189.985199 V 188.487701 Z" fill="#FFECD1"/>
		<g>
			<path d="M 189.98519897460938 188.48770141601562 L 189.98519897460938 247.07969665527344 L 210.50689697265625 247.07969665527344 L 244.3350067138672 188.48770141601562 Z" fill="#FFF3E4"/>
			<path d="M 219.8542022705078 247.07969665527344 L 230.5366973876953 247.07969665527344 L 264.36468505859375 188.48770141601562 L 253.6822052001953 188.48770141601562 Z" fill="#FFF3E4"/>
			<path d="M 345.548095703125 188.48770141601562 L 334.4093017578125 207.78070068359375 L 334.4093017578125 247.07969665527344 L 376.260498046875 247.07969665527344 L 410.0885925292969 188.48770141601562 Z" fill="#FFF3E4"/>
			<path d="M 419.4356994628906 188.48770141601562 L 385.6076965332031 247.07969665527344 L 396.2903137207031 247.07969665527344 L 430.1181945800781 188.48770141601562 Z" fill="#FFF3E4"/>
		</g>
		<path d="M 327.984711 168.4431 H 348.02931 V 267.124298 H 327.984711 V 168.4431 Z" fill="#F4DBB8"/>
	</g>
</g>
<g transform="matrix(1, 0, 0, 1, -108.11751556396484, -153.5582046508789)">
	<path fill="#EAE9F3" d="M401.9012,415.321H166.8024c-11.6657,0-21.1225,9.4568-21.1225,21.1225v336.0227&#10;&#9;&#9;c0,11.6656,9.4568,21.1226,21.1225,21.1226h235.0989c11.6657,0,21.1227-9.457,21.1227-21.1226V436.4435&#10;&#9;&#9;C423.0239,424.7778,413.5669,415.321,401.9012,415.321z"/>
	<path fill="#D3D3EA" d="M401.9012,415.321H166.8024c-11.6657,0-21.1225,9.4568-21.1225,21.1225v46.3659h277.344v-46.3659&#10;&#9;&#9;C423.0239,424.7778,413.5669,415.321,401.9012,415.321z"/>
	<g>
		<g>
			<path fill="#9896CA" d="M175.6884,434.3912H165.347c-1.8244,0-3.3034,1.4791-3.3034,3.3035c0,1.8245,1.479,3.3034,3.3034,3.3034&#10;&#9;&#9;&#9;&#9;h10.3413c1.8246,0,3.3035-1.479,3.3035-3.3034C178.9919,435.8703,177.5129,434.3912,175.6884,434.3912z"/>
			<path fill="#9896CA" d="M175.6884,445.5413H165.347c-1.8244,0-3.3034,1.4791-3.3034,3.3035c0,1.8244,1.479,3.3034,3.3034,3.3034&#10;&#9;&#9;&#9;&#9;h10.3413c1.8246,0,3.3035-1.479,3.3035-3.3034C178.9919,447.0203,177.5129,445.5413,175.6884,445.5413z"/>
			<path fill="#9896CA" d="M175.6884,456.6913H165.347c-1.8244,0-3.3034,1.4791-3.3034,3.3035c0,1.8244,1.479,3.3034,3.3034,3.3034&#10;&#9;&#9;&#9;&#9;h10.3413c1.8246,0,3.3035-1.479,3.3035-3.3034C178.9919,458.1703,177.5129,456.6913,175.6884,456.6913z"/>
		</g>
		<path fill="#B4B4DA" d="M303.5459,435.8792h-38.388c-1.9656,0-3.5591,1.5935-3.5591,3.5592v18.8126&#10;&#9;&#9;&#9;c0,1.9657,1.5935,3.5591,3.5591,3.5591h38.388c1.9657,0,3.5591-1.5935,3.5591-3.5591v-18.8126&#10;&#9;&#9;&#9;C307.105,437.4727,305.5115,435.8792,303.5459,435.8792z"/>
		<path d="M 397.879504 448.844696 A 12.7112 12.7112 0 0 1 385.168304 461.555896 A 12.7112 12.7112 0 0 1 372.457105 448.844696 A 12.7112 12.7112 0 0 1 385.168304 436.133496 A 12.7112 12.7112 0 0 1 397.879504 448.844696 Z" fill="#DB8CB0"/>
	</g>
	<path d="M 145.679901 482.809387 H 423.023895 V 511.803488 H 145.679901 V 482.809387 Z" fill="#F3F3F9"/>
	<path d="M 367.681091 658.797607 A 79.261597 79.261597 0 0 1 288.419495 738.059204 A 79.261597 79.261597 0 0 1 209.157898 658.797607 A 79.261597 79.261597 0 0 1 288.419495 579.536011 A 79.261597 79.261597 0 0 1 367.681091 658.797607 Z" fill="#D3D3EA"/>
	<path d="M 363.613495 652.696228 A 79.261597 79.261597 0 0 1 284.351898 731.957825 A 79.261597 79.261597 0 0 1 205.090302 652.696228 A 79.261597 79.261597 0 0 1 284.351898 573.434631 A 79.261597 79.261597 0 0 1 363.613495 652.696228 Z" fill="#F3F3F9"/>
	<path d="M 341.017906 652.696228 A 56.6661 56.6661 0 0 1 284.351807 709.362328 A 56.6661 56.6661 0 0 1 227.685707 652.696228 A 56.6661 56.6661 0 0 1 284.351807 596.030128 A 56.6661 56.6661 0 0 1 341.017906 652.696228 Z" fill="#B4B4DA"/>
	<path fill="#9896CA" d="M328.8534,617.6378c-0.4359,30.9202-25.6219,55.8549-56.6456,55.8549&#10;&#9;&#9;c-18.0546,0-34.1246-8.454-44.5016-21.6076c-0.0038,0.2711-0.0205,0.5391-0.0205,0.8112c0,31.2957,25.3702,56.6661,56.6662,56.6661&#10;&#9;&#9;c31.2958,0,56.6661-25.3704,56.6661-56.6661C341.018,639.4549,336.4639,627.2848,328.8534,617.6378z"/>
	<path d="M 317.29029 624.96167 A 8.1352 8.1352 0 0 1 309.15509 633.096869 A 8.1352 8.1352 0 0 1 301.019891 624.96167 A 8.1352 8.1352 0 0 1 309.15509 616.82647 A 8.1352 8.1352 0 0 1 317.29029 624.96167 Z" fill="#D3D3EA"/>
	<path d="M 293.562593 645.130188 A 10.6774 10.6774 0 0 1 282.885193 655.807588 A 10.6774 10.6774 0 0 1 272.207793 645.130188 A 10.6774 10.6774 0 0 1 282.885193 634.452788 A 10.6774 10.6774 0 0 1 293.562593 645.130188 Z" fill="#D3D3EA"/>
	<path d="M 327.64971 652.696228 A 6.2918 6.2918 0 0 1 321.35791 658.988028 A 6.2918 6.2918 0 0 1 315.06611 652.696228 A 6.2918 6.2918 0 0 1 321.35791 646.404428 A 6.2918 6.2918 0 0 1 327.64971 652.696228 Z" fill="#B4B4DA"/>
	<path d="M 284.351899 680.152405 A 10.6774 10.6774 0 0 1 273.6745 690.829804 A 10.6774 10.6774 0 0 1 262.9971 680.152405 A 10.6774 10.6774 0 0 1 273.6745 669.475005 A 10.6774 10.6774 0 0 1 284.351899 680.152405 Z" fill="#B4B4DA"/>
</g>
<path fill="#514835" d="M706.0739,194.7473c0,0-1.1287,15.8306,8.7766,24.429c-0.5197-0.0445-1.0396-0.0742-1.5593-0.1336&#10;&#9;c-10.7814-5.0789-24.5478-28.9732-23.4785-47.0016l16.2612-2.0494l55.3029,13.8555c0,0-0.4901,36.1459,0,46.9273&#10;&#9;C732.1808,224.2552,706.0739,194.7473,706.0739,194.7473z" transform="matrix(1, 0, 0, 1, -108.11751556396484, -153.5582046508789)"/>
<g transform="matrix(1, 0, 0, 1, -108.11751556396484, -153.5582046508789)">
	<g>
		<path fill="#00AFA0" d="M754.9465,374.5378c-0.49,6.106-0.8321,12.2121-1.251,18.3181l-1.0092,18.3181&#10;&#9;&#9;&#9;c-0.6737,12.2121-1.1606,24.4241-1.6451,36.6362c-0.4418,12.2121-0.8569,24.4241-1.1017,36.6362l-0.3477,18.3181&#10;&#9;&#9;&#9;c-0.0259,6.106-0.137,12.2121-0.0905,18.3181c0.2087,27.3389-21.7845,49.6706-49.1234,49.8793&#10;&#9;&#9;&#9;c-27.3389,0.2089-49.6706-21.7845-49.8793-49.1234c-0.0013-0.1642-0.0004-0.5922,0-0.756&#10;&#9;&#9;&#9;c0.0466-6.106-0.0645-12.212-0.0905-18.3181l-0.3477-18.3181c-0.2448-12.2121-0.6599-24.4241-1.1017-36.6362&#10;&#9;&#9;&#9;c-0.4845-12.2121-0.9714-24.4241-1.6451-36.6362l-1.0092-18.3181c-0.4189-6.106-0.761-12.2121-1.251-18.3181&#10;&#9;&#9;&#9;c-2.4352-30.3461,20.191-56.9207,50.5371-59.3559c30.3462-2.4352,56.9207,20.191,59.356,50.5371&#10;&#9;&#9;&#9;C755.1774,368.5953,755.1513,371.7466,754.9465,374.5378z"/>
		<path fill="#FBB568" d="M705.1976,334.4004h-10.3953c-7.3815,0-13.3654-5.9839-13.3654-13.3654v-24.1319h37.126v24.1319&#10;&#9;&#9;&#9;C718.563,328.4165,712.5792,334.4004,705.1976,334.4004z"/>
		<path fill="#E08C3B" d="M681.437,313.9412c7.8357,5.8808,20.4257,13.5781,34.8523,14.5519&#10;&#9;&#9;&#9;c1.4353-2.1303,2.2737-4.6962,2.2737-7.4581v-24.1319h-37.126V313.9412z"/>
		<g>
			<g>
				<path fill="#FBB568" d="M644.0289,191.5536v67.5582c0,30.912,25.0591,55.971,55.971,55.971h0.0001&#10;&#9;&#9;&#9;&#9;&#9;c30.9119,0,55.971-25.0591,55.971-55.971v-67.5582H644.0289z"/>
				<path fill="#FAAB54" d="M749.4677,191.5536v67.5582c0,29.8197-23.3217,54.1848-52.7193,55.87&#10;&#9;&#9;&#9;&#9;&#9;c1.0768,0.0617,2.1594,0.101,3.2516,0.101h0.0001c30.912,0,55.9711-25.0591,55.9711-55.971v-67.5582H749.4677z"/>
				<g>
					<g>
						<path fill="#514835" d="M709.705,237.6259c-1.1891,0-2.3131-0.7208-2.7685-1.8969c-0.5931-1.5293,0.1653-3.25,1.6953-3.8431&#10;&#9;&#9;&#9;&#9;&#9;&#9;&#9;c11.1436-4.321,27.991-10.8507,38.8693-1.7352c1.2573,1.0536,1.4227,2.9266,0.3698,4.1839&#10;&#9;&#9;&#9;&#9;&#9;&#9;&#9;c-1.0543,1.2566-2.9295,1.4212-4.184,0.3698c-7.5586-6.3339-20.4019-2.1282-32.9088,2.7199&#10;&#9;&#9;&#9;&#9;&#9;&#9;&#9;C710.4257,237.5614,710.0632,237.6259,709.705,237.6259z"/>
						<g>
							<path d="M 735.625274 247.915802 A 7.1221 7.1221 0 0 1 728.503174 255.037902 A 7.1221 7.1221 0 0 1 721.381074 247.915802 A 7.1221 7.1221 0 0 1 728.503174 240.793702 A 7.1221 7.1221 0 0 1 735.625274 247.915802 Z" fill="#483735"/>
							<path fill="#483735" d="M732.7231,244.0844c1.4089,0.5674,2.9881,0.9188,4.5915,0.9166&#10;&#9;&#9;&#9;&#9;&#9;&#9;&#9;&#9;c1.5854-0.017,3.2818-0.3567,4.5665-1.6127c-0.6406,1.6927-2.2969,2.9879-4.0405,3.7772&#10;&#9;&#9;&#9;&#9;&#9;&#9;&#9;&#9;c-1.7723,0.8048-3.7206,1.2325-5.7442,1.3296L732.7231,244.0844z"/>
							<path fill="#483735" d="M732.0264,248.0814c1.3296,0.7341,2.8545,1.2745,4.4464,1.467&#10;&#9;&#9;&#9;&#9;&#9;&#9;&#9;&#9;c1.5757,0.1755,3.3008,0.0441,4.7285-1.0467c-0.8412,1.6024-2.6424,2.6871-4.469,3.259&#10;&#9;&#9;&#9;&#9;&#9;&#9;&#9;&#9;c-1.8569,0.5839-3.8427,0.772-5.8631,0.6229L732.0264,248.0814z"/>
						</g>
					</g>
					<g>
						<path fill="#514835" d="M690.2943,237.6259c-0.3568,0-0.72-0.0645-1.0732-0.2016&#10;&#9;&#9;&#9;&#9;&#9;&#9;&#9;c-12.5054-4.8489-25.3487-9.0531-32.908-2.7199c-1.2574,1.0521-3.131,0.8868-4.184-0.3698&#10;&#9;&#9;&#9;&#9;&#9;&#9;&#9;c-1.0536-1.2574-0.8875-3.1303,0.3698-4.1839c10.8797-9.1147,27.7234-2.5858,38.8699,1.7352&#10;&#9;&#9;&#9;&#9;&#9;&#9;&#9;c1.5293,0.5932,2.2885,2.3139,1.6954,3.8431C692.6082,236.9051,691.4849,237.6259,690.2943,237.6259z"/>
						<g>
							<path d="M 678.618926 247.915802 A 7.1221 7.1221 0 0 1 671.496826 255.037902 A 7.1221 7.1221 0 0 1 664.374726 247.915802 A 7.1221 7.1221 0 0 1 671.496826 240.793702 A 7.1221 7.1221 0 0 1 678.618926 247.915802 Z" fill="#483735"/>
							<path fill="#483735" d="M667.9036,248.4952c-2.0236-0.0971-3.9719-0.5248-5.7442-1.3296&#10;&#9;&#9;&#9;&#9;&#9;&#9;&#9;&#9;c-1.7437-0.7894-3.3999-2.0846-4.0405-3.7772c1.2847,1.256,2.9811,1.5957,4.5665,1.6127&#10;&#9;&#9;&#9;&#9;&#9;&#9;&#9;&#9;c1.6034,0.0021,3.1826-0.3492,4.5915-0.9166L667.9036,248.4952z"/>
							<path fill="#483735" d="M669.1309,252.3836c-2.0204,0.1491-4.0062-0.039-5.8631-0.6229&#10;&#9;&#9;&#9;&#9;&#9;&#9;&#9;&#9;c-1.8266-0.572-3.6278-1.6566-4.469-3.259c1.4276,1.0908,3.1528,1.2222,4.7285,1.0467&#10;&#9;&#9;&#9;&#9;&#9;&#9;&#9;&#9;c1.5919-0.1924,3.1168-0.7328,4.4464-1.467L669.1309,252.3836z"/>
						</g>
					</g>
				</g>
				<path fill="#C01823" d="M676.2393,284.4814c4.4288,8.6283,13.3953,14.5435,23.7608,14.5435&#10;&#9;&#9;&#9;&#9;&#9;c10.3653,0,19.3318-5.9152,23.7606-14.5435H676.2393z"/>
				<path fill="#F26C57" d="M713.2969,295.4575c-3.8905-2.3367-8.4265-3.7043-13.2969-3.7043s-9.4064,1.3676-13.2969,3.7043&#10;&#9;&#9;&#9;&#9;&#9;c3.915,2.2604,8.4488,3.5674,13.297,3.5674C704.8482,299.0249,709.3819,297.7179,713.2969,295.4575z"/>
				<path fill="#FFFCD7" d="M679.2396,289.0871h41.5209c1.1492-1.4229,2.1578-2.9643,3.0002-4.6057h-47.5214&#10;&#9;&#9;&#9;&#9;&#9;C677.0818,286.1228,678.0904,287.6642,679.2396,289.0871z"/>
			</g>
			<path fill="#514835" d="M658.7988,175.9321c6.0552,19.8006,17.4406,40.4465,56.0516,43.2414&#10;&#9;&#9;&#9;&#9;c-9.9003-8.5904-8.7718-24.4308-8.7718-24.4308s26.0973,29.5055,55.3031,36.0384c-0.495-10.7927,0-46.9287,0-46.9287&#10;&#9;&#9;&#9;&#9;l-55.3031-13.8604L658.7988,175.9321z"/>
			<path fill="#514835" d="M668.5522,179.9561c-0.1094,12.9941-3.4507,29.3296-29.8102,58.4735c0-22.8325,0-56.2459,0-56.2459&#10;&#9;&#9;&#9;&#9;L668.5522,179.9561z"/>
			<g>
				<path fill="#FBB568" d="M760.014,266.4076h-0.9716v-23.6861h0.9716c3.4893,0,6.3178,2.8286,6.3178,6.3178v11.0505&#10;&#9;&#9;&#9;&#9;&#9;C766.3318,263.579,763.5033,266.4076,760.014,266.4076z"/>
				<path fill="#FBB568" d="M639.986,266.4076h0.9716v-23.6861h-0.9716c-3.4893,0-6.3178,2.8286-6.3178,6.3178v11.0505&#10;&#9;&#9;&#9;&#9;&#9;C633.6682,263.579,636.4967,266.4076,639.986,266.4076z"/>
			</g>
		</g>
	</g>
	<path fill="#776F61" d="M668.548,167.4272c-1.2596,0-2.4277-0.8071-2.8301-2.0709c-0.4967-1.5634,0.3676-3.2333,1.931-3.7307&#10;&#9;&#9;c1.7418-0.5533,3.5335-1.0246,5.3253-1.4009c1.6039-0.3343,3.1804,0.6925,3.5168,2.2972c0.3364,1.6054-0.6918,3.1796-2.2972,3.5168&#10;&#9;&#9;c-1.5967,0.335-3.1934,0.7549-4.7452,1.2487C669.1491,167.3823,668.846,167.4272,668.548,167.4272z"/>
	<path fill="#776F61" d="M632.2595,217.0123c-1.6402,0-2.97-1.3299-2.97-2.9701c0-20.5701,11.3655-39.2688,29.6609-48.7997&#10;&#9;&#9;c1.4539-0.7585,3.2471-0.1929,4.0062,1.2624c0.7578,1.4546,0.1929,3.2485-1.2624,4.0063&#10;&#9;&#9;c-16.3239,8.5035-26.4647,25.1841-26.4647,43.531C635.2296,215.6824,633.8997,217.0123,632.2595,217.0123z"/>
</g>
<g transform="matrix(1, 0, 0, 1, -108.11751556396484, -153.5582046508789)">
	<g>
		<g>
			<path fill="#FBB568" d="M776.0775,767.5278c-0.3889-2.665-0.7778-5.3589-1.1813-8.0816c-0.3457-2.348-0.6914-4.725-1.0516-7.1307&#10;&#9;&#9;&#9;&#9;c-5.8054-39.7596-12.4896-85.5406-18.54-127.2017c-0.4897-3.4141-0.9796-6.785-1.4694-10.1415&#10;&#9;&#9;&#9;&#9;c-0.9507-6.641-1.9015-13.1523-2.809-19.4764c-4.6099-31.8364-8.5282-59.3079-10.9915-76.9548h-36.3742&#10;&#9;&#9;&#9;&#9;c1.9303,14.3192,5.4021,38.5206,11.4524,80.2969c0.9653,6.6266,1.988,13.6998,3.0828,21.2483&#10;&#9;&#9;&#9;&#9;c0.4034,2.7227,0.8067,5.5174,1.2101,8.3697c0.461,3.1548,0.9363,6.3817,1.4117,9.695&#10;&#9;&#9;&#9;&#9;c6.8282,47.092,13.7574,94.472,17.2579,118.4718c0.461,3.0828,0.8644,5.7767,1.1957,8.0383&#10;&#9;&#9;&#9;&#9;c0.7347,5.0707,1.1669,7.9518,1.1813,8.0815c0.6915,4.725,3.1548,8.7587,6.6265,11.5101&#10;&#9;&#9;&#9;&#9;c3.1117,2.449,7.0156,3.8895,11.1644,3.8895c0.8788,0,1.7576-0.0577,2.6363-0.1873c3.2557-0.4754,6.1656-1.7863,8.5714-3.7023&#10;&#9;&#9;&#9;&#9;C774.3201,780.3921,777.0571,774.1113,776.0775,767.5278z"/>
			<path fill="#615142" d="M759.0213,595.3519c-0.0288-0.2017-0.0577-0.4033-0.0864-0.605&#10;&#9;&#9;&#9;&#9;c-5.575-38.6359-8.9171-62.045-10.8906-76.2057h-52.3645c0.5474,3.9615,1.2101,8.701,2.0168,14.3912&#10;&#9;&#9;&#9;&#9;c2.2473,16.0047,5.4597,38.4774,9.5654,66.8277c0.144,0.994,0.288,2.0024,0.4321,3.0108&#10;&#9;&#9;&#9;&#9;c1.0372,7.246,4.9844,13.3539,10.5016,17.3155c4.3073,3.1117,9.5654,4.9124,15.1259,4.9124c1.2245,0,2.4778-0.1008,3.7455-0.2737&#10;&#9;&#9;&#9;&#9;c6.9147-0.994,12.7922-4.6387,16.7681-9.7526C757.9985,609.5991,760.0729,602.6123,759.0213,595.3519z"/>
			<path fill="#826D5A" d="M761.4855,594.5151l-52.712,4.9142c-3.7256,0.3474-6.4642,3.649-6.1169,7.3746l1.517,16.2711&#10;&#9;&#9;&#9;&#9;c0.3473,3.7256,3.649,6.4642,7.3746,6.1169l52.7121-4.9142c3.7255-0.3474,6.4641-3.649,6.1168-7.3746l-1.5169-16.2712&#10;&#9;&#9;&#9;&#9;C768.5128,596.9064,765.2111,594.1678,761.4855,594.5151z"/>
			<path fill="#4A4B7D" d="M793.5576,794.3784h-65.0795v-18.6841c0-13.1016,10.621-23.7225,23.7225-23.7225h17.6344&#10;&#9;&#9;&#9;&#9;c13.1016,0,23.7225,10.6209,23.7225,23.7225V794.3784z"/>
			<path fill="#FBB568" d="M735.196,784.2521v-8.5577c0-9.3765,7.6281-17.0046,17.0046-17.0046h17.6344&#10;&#9;&#9;&#9;&#9;c9.3765,0,17.0046,7.6282,17.0046,17.0046v8.5577H735.196z"/>
		</g>
		<g>
			<path fill="#FBB568" d="M630.549,784.2527c2.4057,1.916,5.3157,3.2269,8.5714,3.7023c0.8787,0.1296,1.7574,0.1873,2.6363,0.1873&#10;&#9;&#9;&#9;&#9;c4.1487,0,8.0527-1.4406,11.1644-3.8895c3.4717-2.7514,5.9351-6.785,6.6265-11.5101c0.0144-0.1297,0.4466-3.0108,1.1813-8.0815&#10;&#9;&#9;&#9;&#9;c0.3313-2.2617,0.7347-4.9555,1.1957-8.0383c3.5005-23.9998,10.4297-71.3798,17.2579-118.4718&#10;&#9;&#9;&#9;&#9;c0.4754-3.3134,0.9507-6.5402,1.4117-9.695c0.4034-2.8523,0.8067-5.647,1.2101-8.3697&#10;&#9;&#9;&#9;&#9;c1.0948-7.5485,2.1176-14.6216,3.0828-21.2483c6.0503-41.7763,9.5221-65.9777,11.4524-80.2969h-36.3742&#10;&#9;&#9;&#9;&#9;c-2.4633,17.6469-6.3817,45.1184-10.9915,76.9548c-0.9075,6.3241-1.8583,12.8354-2.809,19.4764&#10;&#9;&#9;&#9;&#9;c-0.4898,3.3565-0.9796,6.7274-1.4694,10.1415c-6.0504,41.6611-12.7346,87.4421-18.54,127.2017&#10;&#9;&#9;&#9;&#9;c-0.3602,2.4057-0.7059,4.7827-1.0516,7.1307c-0.4034,2.7227-0.7924,5.4166-1.1813,8.0816&#10;&#9;&#9;&#9;&#9;C622.9429,774.1113,625.6799,780.3921,630.549,784.2527z"/>
			<path fill="#615142" d="M646.1647,614.9724c3.9759,5.114,9.8534,8.7586,16.7681,9.7526c1.2677,0.1729,2.521,0.2737,3.7455,0.2737&#10;&#9;&#9;&#9;&#9;c5.5605,0,10.8186-1.8007,15.1259-4.9124c5.5173-3.9615,9.4645-10.0695,10.5016-17.3155&#10;&#9;&#9;&#9;&#9;c0.1441-1.0084,0.2881-2.0168,0.4321-3.0108c4.1057-28.3503,7.3181-50.823,9.5654-66.8277&#10;&#9;&#9;&#9;&#9;c0.8067-5.6901,1.4694-10.4296,2.0168-14.3912h-52.3645c-1.9736,14.1607-5.3157,37.5699-10.8906,76.2057&#10;&#9;&#9;&#9;&#9;c-0.0287,0.2017-0.0576,0.4033-0.0864,0.605C639.9271,602.6123,642.0015,609.5991,646.1647,614.9724z"/>
			<path fill="#826D5A" d="M638.5145,594.5151l52.712,4.9142c3.7256,0.3474,6.4642,3.649,6.1169,7.3746l-1.517,16.2711&#10;&#9;&#9;&#9;&#9;c-0.3473,3.7256-3.649,6.4642-7.3746,6.1169l-52.7121-4.9142c-3.7255-0.3474-6.4641-3.649-6.1168-7.3746l1.5169-16.2712&#10;&#9;&#9;&#9;&#9;C631.4872,596.9064,634.7889,594.1678,638.5145,594.5151z"/>
			<path fill="#4A4B7D" d="M606.4424,794.3784h65.0795v-18.6841c0-13.1016-10.621-23.7225-23.7225-23.7225h-17.6344&#10;&#9;&#9;&#9;&#9;c-13.1016,0-23.7225,10.6209-23.7225,23.7225V794.3784z"/>
			<path fill="#FBB568" d="M664.804,784.2521v-8.5577c0-9.3914-7.6132-17.0046-17.0046-17.0046h-17.6344&#10;&#9;&#9;&#9;&#9;c-9.3914,0-17.0046,7.6133-17.0046,17.0046v8.5577H664.804z"/>
		</g>
	</g>
	<path fill="#615142" d="M650.1122,487.1741l0.296,15.5904c0.0259,6.106,0.137,12.2121,0.0905,18.3181&#10;&#9;&#9;c-0.0004,0.1638-0.0013,0.5918,0,0.756c0.2087,27.3388,22.5405,49.3322,49.8793,49.1234&#10;&#9;&#9;c26.8408-0.205,48.5134-21.738,49.0972-48.3943c0.0108-0.4945,0.03-0.9871,0.0262-1.485&#10;&#9;&#9;c-0.0466-6.106,0.0645-12.212,0.0905-18.3181l0.296-15.5904H650.1122z"/>
</g>
<g transform="matrix(1, 0, 0, 1, -108.11751556396484, -153.5582046508789)">
	<path fill="#D3D3EA" d="M546.8606,793.5888c1.5893,0,3.1786-0.5948,4.4094-1.7885l294.6852-286.0732&#10;&#9;&#9;c2.5083-2.4341,2.5681-6.4424,0.1332-8.9507c-2.4348-2.5055-6.4431-2.5674-8.9507-0.1319L542.4512,782.7178&#10;&#9;&#9;c-2.5083,2.4341-2.5673,6.4424-0.1318,8.9507C543.5597,792.946,545.2095,793.5888,546.8606,793.5888z"/>
	<path d="M 689.0535278320312 658.0435791015625 L 699.8201293945312 647.5916137695312 L 690.867919921875 638.6392822265625 L 680.10107421875 649.0911865234375 Z" fill="#B4B4DA"/>
	<path fill="#F3F3F9" d="M841.5463,793.5888c-1.5893,0-3.1786-0.5948-4.4094-1.7885L542.4516,505.7271&#10;&#9;&#9;c-2.5082-2.4341-2.568-6.4424-0.1332-8.9507c2.4348-2.5055,6.4431-2.5674,8.9507-0.1319l294.6867,286.0732&#10;&#9;&#9;c2.5082,2.4341,2.5673,6.4424,0.1318,8.9507C844.8472,792.946,843.1974,793.5888,841.5463,793.5888z"/>
	<path fill="#9896CA" d="M357.0862,501.1855L357.0862,501.1855c0,5.9147,4.7948,10.7095,10.7094,10.7095h605.6937&#10;&#9;&#9;c5.9147,0,10.7095-4.7948,10.7095-10.7094v0c0-5.9147-4.7948-10.7094-10.7095-10.7094H367.7957&#10;&#9;&#9;C361.881,490.476,357.0862,495.2708,357.0862,501.1855z"/>
</g>
<g transform="matrix(1, 0, 0, 1, -108.11751556396484, -153.5582046508789)">
	<path d="M 596.89447 490.476105 H 641.55447 V 560.041603 H 596.89447 V 490.476105 Z" fill="#EF4871"/>
	<path d="M 596.89447 552.148193 H 641.55447 V 560.041594 H 596.89447 V 552.148193 Z" fill="#B63156"/>
	<path d="M 596.89447 538.700195 H 641.55447 V 546.593596 H 596.89447 V 538.700195 Z" fill="#B63156"/>
	<path fill="#EF4871" d="M783.8549,483.7326H572.9841c-3.0439,0-5.5114,2.4676-5.5114,5.5114v1.232h67.8692v8.4485&#10;&#9;&#9;c0,3.4648,2.6018,6.3772,6.0447,6.7663l140.4058,15.8677c4.0378,0.4564,7.574-2.7027,7.574-6.7662v-17.5729v-7.9754&#10;&#9;&#9;C789.3663,486.2002,786.8988,483.7326,783.8549,483.7326z"/>
</g>
<g transform="matrix(1, 0, 0, 1, -108.11751556396484, -153.5582046508789)">
	<path fill="#D3D3EA" d="M791.3967,464.166l-9.2531-25.0845c-0.9487-2.5718-3.3995-4.2801-6.1407-4.2801h-31.507&#10;&#9;&#9;c-22.4955,0-40.7318,18.2362-40.7318,40.7318v10.6476h74.0578v-9.7283c0-4.1125,3.3339-7.4465,7.4465-7.4465h2.7549&#10;&#9;&#9;C790.5255,469.006,792.2628,466.5136,791.3967,464.166z M772.8629,466.8931h-45.3723c-7.4501,0-11.2311-9.0135-5.9758-14.2942&#10;&#9;&#9;c5.8782-5.9066,14.0042-9.5689,22.9807-9.5689h30.3335l6.7131,18.1954C778.0399,462.0827,775.002,464.124,772.8629,466.8931z"/>
	<path d="M 703.764221 477.590393 H 777.822021 V 486.180893 H 703.764221 V 477.590393 Z" fill="#4A4B7D"/>
	<path fill="#4A4B7D" d="M758.0732,457.4302h-16.5944c-1.4391,0-2.6058,1.1667-2.6058,2.6058v6.8571h21.8059v-6.8571&#10;&#9;&#9;C760.679,458.5969,759.5123,457.4302,758.0732,457.4302z"/>
</g>
<g transform="matrix(1, 0, 0, 1, -108.11751556396484, -153.5582046508789)">
	<path fill="#FBB568" d="M629.607,498.8765c-4.9532,0-9.8232-2.3538-12.8491-6.7393&#10;&#9;&#9;c-22.5707-32.7173-28.6255-62.9257-18.5101-92.351c8.5274-24.807,26.8431-44.2888,44.5563-63.1295l3.928-4.1839&#10;&#9;&#9;c5.8843-6.2911,15.7517-6.6167,22.0392-0.7338c6.2889,5.8836,6.6174,15.751,0.7338,22.0392l-3.9802,4.2405&#10;&#9;&#9;c-33.3214,35.4423-59.641,63.4362-23.0965,116.4083c4.8902,7.0887,3.1078,16.7995-3.9809,21.6897&#10;&#9;&#9;C635.7451,497.9817,632.6597,498.8765,629.607,498.8765z"/>
	<path fill="#FAAB54" d="M615.8358,408.5727c-2.8768,14.1171-6.9357,50.3158,27.5633,81.9463&#10;&#9;&#9;c2.5966-4.9636,2.4315-11.1606-0.9705-16.0921c-16.3519-23.7024-20.1111-42.4021-16.2951-59.0076L615.8358,408.5727z"/>
	<path fill="#00AFA0" d="M615.1293,420.6442c-2.4182,0-4.8764-0.4401-7.2656-1.3697&#10;&#9;&#9;c-10.3185-4.0157-15.4276-15.6357-11.4127-25.9542c12.0884-31.0633,31.3302-50.4733,48.5582-65.3629&#10;&#9;&#9;c8.3766-7.2396,21.0371-6.3172,28.2775,2.0586c7.2403,8.3773,6.3187,21.0371-2.0587,28.2774&#10;&#9;&#9;c-14.1811,12.2567-28.5283,26.7445-37.4103,49.5683C630.7317,415.791,623.1549,420.6442,615.1293,420.6442z"/>
	<path fill="#009E8B" d="M645.0535,374.5378c-0.6628-8.2588,0.5431-16.2327,3.2433-23.5222&#10;&#9;&#9;c-16.9203,17.3706-32.9983,41.3209-33.708,69.6039c0.18,0.0049,0.3609,0.0247,0.5405,0.0247&#10;&#9;&#9;c8.0256,0,15.6024-4.8532,18.6885-12.7824c3.3301-8.5572,7.4285-15.9425,11.9982-22.4779&#10;&#9;&#9;C645.5829,381.7686,645.3436,378.1531,645.0535,374.5378z"/>
</g>
<path fill="#00AFA0" d="M798.3527,368.8288c-2.6109-7.157-9.4575-12.2768-17.5179-12.2768c-10.3073,0-18.663,8.3557-18.663,18.663&#10;&#9;c0,9.4253,6.9937,17.1974,16.0705,18.4623c0.2244,0.0075,0.448,0.0316,0.6724,0.0316c5.2035,0,10.4026-2.0129,14.3298-6.0257&#10;&#9;C798.289,382.529,799.9674,375.3508,798.3527,368.8288z" transform="matrix(1, 0, 0, 1, -108.11751556396484, -153.5582046508789)"/>
<path fill="#FBB568" d="M755.9733,455.6696c-6.2505,0-12.1501-3.7859-14.543-9.9653c-3.1108-8.0307,0.8788-17.062,8.9088-20.1721&#10;&#9;c32.2489-12.488,34.082-20.5375,34.0965-20.6173c0.0087-0.0421,0.6222-4.3253-12.6025-16.2782&#10;&#9;c-6.3883-5.7748-6.8857-15.635-1.1109-22.024c5.7748-6.389,15.6379-6.8857,22.0233-1.1116&#10;&#9;c11.2886,10.2039,25.8882,25.9788,22.3568,45.0813c-3.2094,17.3659-19.7087,30.9452-53.5006,44.0313&#10;&#9;C759.7512,455.3302,757.847,455.6696,755.9733,455.6696z" transform="matrix(1, 0, 0, 1, -108.11751556396484, -153.5582046508789)"/>
<path fill="#FAAB54" d="M792.7455,365.5012c-4.7416-4.2877-11.3985-5.1104-16.8774-2.6372&#10;&#9;c57.5746,56.1166,1.1398,71.8125-33.7784,84.2929c2.7029,5.3111,8.1412,8.5127,13.8837,8.5127c1.8737,0,3.7778-0.3394,5.6284-1.0558&#10;&#9;c33.7919-13.0862,50.2913-26.6655,53.5006-44.0313C818.6337,391.48,804.0341,375.705,792.7455,365.5012z" transform="matrix(1, 0, 0, 1, -108.11751556396484, -153.5582046508789)"/>
<g transform="matrix(1, 0, 0, 1, -108.11751556396484, -153.5582046508789)">
	<g>
		<path fill="#00AFA0" d="M496.9465,473.4928h-96.9508c-4.7016,0-8.5131,3.8115-8.5131,8.5131c0,4.7017,3.8115,8.5132,8.5131,8.5132&#10;&#9;&#9;&#9;h96.9508c4.7016,0,8.5131-3.8115,8.5131-8.5132C505.4596,477.3043,501.6481,473.4928,496.9465,473.4928z"/>
		<path fill="#009E8B" d="M505.4596,482.0058c0-4.7016-3.8115-8.5131-8.5131-8.5131h-17.0577c-4.7016,0-8.5131,3.8115-8.5131,8.5131&#10;&#9;&#9;&#9;c0,4.7017,3.8115,8.5132,8.5131,8.5132h17.0577C501.6481,490.519,505.4596,486.7075,505.4596,482.0058z"/>
		<path fill="#007F6D" d="M479.8883,484.0409c-1.1221,0-2.0346-0.9125-2.0346-2.0354s0.9125-2.0354,2.0346-2.0354h17.058&#10;&#9;&#9;&#9;c1.1221,0,2.0354,0.9125,2.0354,2.0354s-0.9133,2.0354-2.0354,2.0354H479.8883z"/>
	</g>
	<g>
		<path fill="#EF4871" d="M496.9465,456.5133h-96.9508c-4.7016,0-8.5131,3.8115-8.5131,8.5131c0,4.7017,3.8115,8.5132,8.5131,8.5132&#10;&#9;&#9;&#9;h96.9508c4.7016,0,8.5131-3.8115,8.5131-8.5132C505.4596,460.3248,501.6481,456.5133,496.9465,456.5133z"/>
		<path fill="#DE3E6C" d="M505.4596,465.0264c0-4.7016-3.8115-8.5131-8.5131-8.5131h-17.0577c-4.7016,0-8.5131,3.8115-8.5131,8.5131&#10;&#9;&#9;&#9;c0,4.7017,3.8115,8.5132,8.5131,8.5132h17.0577C501.6481,473.5396,505.4596,469.7281,505.4596,465.0264z"/>
		<path fill="#B63156" d="M479.8883,467.0615c-1.1221,0-2.0346-0.9125-2.0346-2.0354s0.9125-2.0354,2.0346-2.0354h17.058&#10;&#9;&#9;&#9;c1.1221,0,2.0354,0.9125,2.0354,2.0354s-0.9133,2.0354-2.0354,2.0354H479.8883z"/>
	</g>
	<g>
		<path fill="#FFCF62" d="M496.9465,439.5339h-96.9508c-4.7016,0-8.5131,3.8115-8.5131,8.5131c0,4.7017,3.8115,8.5132,8.5131,8.5132&#10;&#9;&#9;&#9;h96.9508c4.7016,0,8.5131-3.8115,8.5131-8.5132C505.4596,443.3454,501.6481,439.5339,496.9465,439.5339z"/>
		<path fill="#FBAD18" d="M505.4596,448.0469c0-4.7016-3.8115-8.5131-8.5131-8.5131h-17.0577c-4.7016,0-8.5131,3.8115-8.5131,8.5131&#10;&#9;&#9;&#9;c0,4.7017,3.8115,8.5132,8.5131,8.5132h17.0577C501.6481,456.5601,505.4596,452.7486,505.4596,448.0469z"/>
		<path fill="#C28710" d="M479.8883,450.082c-1.1221,0-2.0346-0.9125-2.0346-2.0354s0.9125-2.0354,2.0346-2.0354h17.058&#10;&#9;&#9;&#9;c1.1221,0,2.0354,0.9125,2.0354,2.0354s-0.9133,2.0354-2.0354,2.0354H479.8883z"/>
	</g>
	<path fill="#FBAD18" d="M458.555,439.5339c-0.5817,0-18.1576,14.2067-28.0105,22.208c-3.6508,2.9648-8.9937,2.5041-12.0851-1.0401&#10;&#9;&#9;l-18.4638-21.168v-0.0001c0-2.2239,1.8029-4.0268,4.0268-4.0268h68.0499c2.2239,0,4.0268,1.8029,4.0268,4.0268l0,0&#10;&#9;&#9;L458.555,439.5339z"/>
</g>
<g transform="matrix(1, 0, 0, 1, -108.11751556396484, -153.5582046508789)">
	<path fill="#9896CA" d="M409.7262,678.6971L409.7262,678.6971c0-4.6856-3.7984-8.484-8.484-8.484h-22.9324&#10;&#9;&#9;c-4.6856,0-8.484,3.7984-8.484,8.4839v22.9324c0,4.6855,3.7984,8.4839,8.484,8.4839h20.5765h10.8399h39.9756&#10;&#9;&#9;c4.6856,0,8.484-3.7984,8.484-8.4839v-5.9644c0-4.6856-3.7984-8.484-8.484-8.484h-31.4916&#10;&#9;&#9;C413.5246,687.1811,409.7262,683.3827,409.7262,678.6971z"/>
	<path fill="#FBB568" d="M400.1421,636.4485L400.1421,636.4485c0-4.0684-3.2981-7.3665-7.3665-7.3665H372.864&#10;&#9;&#9;c-4.0684,0-7.3665,3.298-7.3665,7.3665v19.9117c0,4.0684,3.2981,7.3665,7.3665,7.3665h17.8661h9.412h34.7099&#10;&#9;&#9;c4.0684,0,7.3665-3.2981,7.3665-7.3665v-5.1788c0-4.0684-3.2981-7.3665-7.3665-7.3665h-27.3434&#10;&#9;&#9;C403.4402,643.815,400.1421,640.5169,400.1421,636.4485z"/>
	<path fill="#B4B4DA" d="M416.3571,689.0236v-0.9901c0-2.5972-2.1054-4.7026-4.7026-4.7026h-29.4534&#10;&#9;&#9;c-2.5972,0-4.7026,2.1055-4.7026,4.7026v0.9901c0,2.5972-2.1054,4.7026-4.7026,4.7026h0c-2.5972,0-4.7026,2.1054-4.7026,4.7026&#10;&#9;&#9;v28.8264c0,2.5972,2.1054,4.7026,4.7026,4.7026h48.2639c2.5972,0,4.7026-2.1055,4.7026-4.7026v-28.8264&#10;&#9;&#9;c0-2.5972-2.1054-4.7026-4.7026-4.7026h0C418.4625,693.7263,416.3571,691.6208,416.3571,689.0236z"/>
	<path fill="#00AFA0" d="M420.9714,705.8544h28.9388c5.1456,0,9.317,4.1713,9.317,9.3169v18.8561c0,5.1456-4.1713,9.317-9.317,9.317&#10;&#9;&#9;h-28.9388c-5.1456,0-9.317-4.1713-9.317-9.317v-18.8561C411.6544,710.0257,415.8258,705.8544,420.9714,705.8544z"/>
	<path fill="#FBB568" d="M384.0573,721.1998h39.6013c5.8094,0,10.5189,4.7095,10.5189,10.5189v16.4521&#10;&#9;&#9;c0,5.8094-4.7095,10.5189-10.5189,10.5189h-39.6013c-5.8094,0-10.5189-4.7095-10.5189-10.5189v-16.4521&#10;&#9;&#9;C373.5384,725.9092,378.2479,721.1998,384.0573,721.1998z"/>
	<path fill="#00AFA0" d="M372.1771,745.2077h28.4292c8.1145,0,14.6926,6.5781,14.6926,14.6926v24.3518h-43.1218V745.2077z"/>
	<path fill="#B4B4DA" d="M414.3427,748.457v10.7469h-12.7543v24.178H454.9v-24.178v-21.1447h-30.1595&#10;&#9;&#9;C418.998,738.0592,414.3427,742.7145,414.3427,748.457z"/>
	<path fill="#EF4871" d="M420.2761,649.7819v10.7468h0c-7.044,0-12.7543,5.7103-12.7543,12.7543v11.4238h53.3116v-24.1781v-9.7449&#10;&#9;&#9;c0-6.2959-5.1039-11.3998-11.3997-11.3998h-18.7597C424.9313,639.384,420.2761,644.0392,420.2761,649.7819z"/>
	<g>
		<path fill="#B6D2CA" d="M457.451,661.7829l-1.2234,20.6818h-9.4685l0.723-20.2598l-8.9044-0.319l-0.7344,20.5789h-9.845&#10;&#9;&#9;&#9;l0.2392-20.3671l-8.9102-0.1044l-0.2404,20.4716h-9.4875l-0.2403-20.4716l-8.9102,0.1044l0.239,20.3671h-9.8456l-0.7344-20.5789&#10;&#9;&#9;&#9;l-8.9044,0.319l0.7229,20.2598h-9.4684l-1.2234-20.6818l-8.8943,0.525l6.9988,118.3088l8.8943-0.525l-1.2357-20.8878h7.6671&#10;&#9;&#9;&#9;l0.7604,21.3098l8.9044-0.319l-0.7491-20.9907h8.008l0.2489,21.2025l8.9102-0.1044l-0.2477-21.098h7.6856l-0.2477,21.098&#10;&#9;&#9;&#9;l8.9102,0.1044l0.249-21.2025h8.0079l-0.7491,20.9907l8.9044,0.319l0.7604-21.3098h7.6676l-1.2355,20.8878l8.8943,0.525&#10;&#9;&#9;&#9;l6.9981-118.3088L457.451,661.7829z M455.7005,691.3749l-0.8103,13.6989h-8.9379l0.4888-13.6989H455.7005z M391.9668,713.9841&#10;&#9;&#9;&#9;h9.0909l0.1608,13.7004h-8.7628L391.9668,713.9841z M383.5399,727.6845h-8.4068l-0.8105-13.7004h8.7285L383.5399,727.6845z&#10;&#9;&#9;&#9; M409.9691,713.9841h8.7475l-0.1609,13.7004h-8.4258L409.9691,713.9841z M427.6281,713.9841h9.0904l-0.4889,13.7004h-8.7624&#10;&#9;&#9;&#9;L427.6281,713.9841z M445.6344,713.9841h8.7289l-0.8104,13.7004h-8.4073L445.6344,713.9841z M437.5254,691.3749l-0.4888,13.6989&#10;&#9;&#9;&#9;h-9.3038l0.1609-13.6989H437.5254z M418.9821,691.3749l-0.1609,13.6989h-8.9566l-0.1608-13.6989H418.9821z M400.7923,691.3749&#10;&#9;&#9;&#9;l0.1608,13.6989h-9.3043l-0.4888-13.6989H400.7923z M382.2443,691.3749l0.4888,13.6989h-8.9376l-0.8104-13.6989H382.2443z&#10;&#9;&#9;&#9; M376.4705,750.2937l-0.8104-13.699h8.1977l0.4888,13.699H376.4705z M393.2625,750.2937l-0.4888-13.699h8.5494l0.1608,13.699&#10;&#9;&#9;&#9;H393.2625z M410.3954,750.2937l-0.1608-13.699h8.2166l-0.1609,13.699H410.3954z M427.2017,750.2937l0.1609-13.699h8.5491&#10;&#9;&#9;&#9;l-0.4888,13.699H427.2017z M444.3387,750.2937l0.4888-13.699h8.1982l-0.8103,13.699H444.3387z"/>
		<path fill="#96C0B5" d="M456.2276,682.4647h-9.4685l0.723-20.2598l-4.4522-0.1595h-2.1696v118.3823l2.4001,0.086l0.7604-21.3098&#10;&#9;&#9;&#9;h7.6676l-1.2355,20.8878l8.8943,0.525l6.9981-118.3088l-4.4472-0.2625h-4.4626L456.2276,682.4647z M452.2154,750.2937h-7.8767&#10;&#9;&#9;&#9;l0.4888-13.699h8.1982L452.2154,750.2937z M453.5528,727.6845h-8.4073l0.4888-13.7004h8.7289L453.5528,727.6845z&#10;&#9;&#9;&#9; M454.8902,705.0739h-8.9379l0.4888-13.6989h9.2594L454.8902,705.0739z"/>
		<g>
			<path fill="#B3DDCA" d="M469.8958,648.3414H360.702c-4.1359,0-7.4887,3.3528-7.4887,7.4887v9.824&#10;&#9;&#9;&#9;&#9;c0,4.136,3.3528,7.4888,7.4887,7.4888h109.1938c4.1359,0,7.4887-3.3528,7.4887-7.4888v-9.824&#10;&#9;&#9;&#9;&#9;C477.3845,651.6942,474.0316,648.3414,469.8958,648.3414z"/>
			<path fill="#96C9BD" d="M469.8958,648.3414H443.03c4.1359,0,7.4887,3.3528,7.4887,7.4887v9.824&#10;&#9;&#9;&#9;&#9;c0,4.136-3.3528,7.4888-7.4887,7.4888h26.8658c4.1359,0,7.4887-3.3528,7.4887-7.4888v-9.824&#10;&#9;&#9;&#9;&#9;C477.3845,651.6942,474.0316,648.3414,469.8958,648.3414z"/>
			<path fill="#DDEEE8" d="M353.2133,655.8301v0.6058h40.1185c2.2352,0,4.0472-1.812,4.0472-4.0473&#10;&#9;&#9;&#9;&#9;c0-2.2352-1.812-4.0472-4.0472-4.0472H360.702C356.5661,648.3414,353.2133,651.6942,353.2133,655.8301z"/>
			<path fill="#DDEEE8" d="M408.8274,656.4359h16.0329c2.2353,0,4.0473-1.812,4.0473-4.0472l0,0&#10;&#9;&#9;&#9;&#9;c0-2.2352-1.812-4.0472-4.0473-4.0472h-16.0329c-2.2352,0-4.0472,1.812-4.0472,4.0472l0,0&#10;&#9;&#9;&#9;&#9;C404.7802,654.6239,406.5922,656.4359,408.8274,656.4359z"/>
		</g>
		<g>
			<path d="M 366.787506 773.175171 H 463.810204 V 793.588871 H 366.787506 V 773.175171 Z" fill="#B3DDCA"/>
			<path d="M 427.849396 773.175171 H 463.810295 V 793.588871 H 427.849396 V 773.175171 Z" fill="#96C9BD"/>
		</g>
	</g>
</g>
<g transform="matrix(1, 0, 0, 1, -108.11751556396484, -153.5582046508789)">
	<path fill="#DD9775" d="M1208.9548,311.6378H894.0196c-2.9729,0-5.383,2.41-5.383,5.3829v10.0795&#10;&#9;&#9;c0,2.9729,2.4101,5.3829,5.383,5.3829h314.9352c2.9728,0,5.3829-2.41,5.3829-5.3829v-10.0795&#10;&#9;&#9;C1214.3378,314.0478,1211.9276,311.6378,1208.9548,311.6378z"/>
	<g>
		<g>
			<path fill="#00AFA0" d="M1010.5509,294.626h-96.9508c-4.7016,0-8.5131,3.8115-8.5131,8.5131&#10;&#9;&#9;&#9;&#9;c0,4.7017,3.8115,8.5132,8.5131,8.5132h96.9508c4.7016,0,8.5131-3.8115,8.5131-8.5132&#10;&#9;&#9;&#9;&#9;C1019.064,298.4374,1015.2525,294.626,1010.5509,294.626z"/>
			<path fill="#009E8B" d="M1019.064,303.139c0-4.7016-3.8115-8.5131-8.5131-8.5131h-17.0577c-4.7016,0-8.5131,3.8115-8.5131,8.5131&#10;&#9;&#9;&#9;&#9;c0,4.7017,3.8115,8.5132,8.5131,8.5132h17.0577C1015.2524,311.6522,1019.064,307.8407,1019.064,303.139z"/>
			<path fill="#007F6D" d="M993.4927,305.1741c-1.1221,0-2.0346-0.9125-2.0346-2.0354s0.9125-2.0354,2.0346-2.0354h17.058&#10;&#9;&#9;&#9;&#9;c1.1221,0,2.0353,0.9125,2.0353,2.0354s-0.9133,2.0354-2.0353,2.0354H993.4927z"/>
		</g>
		<g>
			<path fill="#EF4871" d="M1010.5509,277.6465h-96.9508c-4.7016,0-8.5131,3.8115-8.5131,8.5131&#10;&#9;&#9;&#9;&#9;c0,4.7017,3.8115,8.5132,8.5131,8.5132h96.9508c4.7016,0,8.5131-3.8115,8.5131-8.5132&#10;&#9;&#9;&#9;&#9;C1019.064,281.458,1015.2525,277.6465,1010.5509,277.6465z"/>
			<path fill="#DE3E6C" d="M1019.064,286.1596c0-4.7016-3.8115-8.5131-8.5131-8.5131h-17.0577&#10;&#9;&#9;&#9;&#9;c-4.7016,0-8.5131,3.8115-8.5131,8.5131c0,4.7017,3.8115,8.5132,8.5131,8.5132h17.0577&#10;&#9;&#9;&#9;&#9;C1015.2524,294.6728,1019.064,290.8613,1019.064,286.1596z"/>
			<path fill="#B63156" d="M993.4927,288.1947c-1.1221,0-2.0346-0.9125-2.0346-2.0354s0.9125-2.0354,2.0346-2.0354h17.058&#10;&#9;&#9;&#9;&#9;c1.1221,0,2.0353,0.9125,2.0353,2.0354s-0.9133,2.0354-2.0353,2.0354H993.4927z"/>
		</g>
		<g>
			<path fill="#FFCF62" d="M1010.5509,260.6671h-96.9508c-4.7016,0-8.5131,3.8115-8.5131,8.5131&#10;&#9;&#9;&#9;&#9;c0,4.7017,3.8115,8.5132,8.5131,8.5132h96.9508c4.7016,0,8.5131-3.8115,8.5131-8.5132&#10;&#9;&#9;&#9;&#9;C1019.064,264.4785,1015.2525,260.6671,1010.5509,260.6671z"/>
			<path fill="#FBAD18" d="M1019.064,269.1801c0-4.7016-3.8115-8.5131-8.5131-8.5131h-17.0577&#10;&#9;&#9;&#9;&#9;c-4.7016,0-8.5131,3.8115-8.5131,8.5131c0,4.7017,3.8115,8.5132,8.5131,8.5132h17.0577&#10;&#9;&#9;&#9;&#9;C1015.2524,277.6933,1019.064,273.8818,1019.064,269.1801z"/>
			<path fill="#C28710" d="M993.4927,271.2152c-1.1221,0-2.0346-0.9125-2.0346-2.0354s0.9125-2.0354,2.0346-2.0354h17.058&#10;&#9;&#9;&#9;&#9;c1.1221,0,2.0353,0.9125,2.0353,2.0354s-0.9133,2.0354-2.0353,2.0354H993.4927z"/>
		</g>
		<path fill="#FBAD18" d="M972.1594,260.6671c-0.5817,0-18.1576,14.2067-28.0104,22.208&#10;&#9;&#9;&#9;c-3.6508,2.9648-8.9937,2.5041-12.0851-1.0401l-18.4637-21.1679v-0.0001c0-2.2239,1.8029-4.0268,4.0267-4.0268h68.0499&#10;&#9;&#9;&#9;c2.2239,0,4.0268,1.8029,4.0268,4.0268l0,0L972.1594,260.6671z"/>
	</g>
	<g>
		<path fill="#FFCF62" d="M1136.3458,294.6115h-96.9508c-4.7015,0-8.5131,3.8115-8.5131,8.5131&#10;&#9;&#9;&#9;c0,4.7017,3.8115,8.5132,8.5131,8.5132h96.9508c4.7017,0,8.5131-3.8115,8.5131-8.5132&#10;&#9;&#9;&#9;C1144.8589,298.423,1141.0475,294.6115,1136.3458,294.6115z"/>
		<path fill="#FBAD18" d="M1144.8589,303.1246c0-4.7016-3.8114-8.5131-8.5131-8.5131h-17.0577&#10;&#9;&#9;&#9;c-4.7015,0-8.5131,3.8115-8.5131,8.5131c0,4.7017,3.8115,8.5132,8.5131,8.5132h17.0577&#10;&#9;&#9;&#9;C1141.0475,311.6378,1144.8589,307.8263,1144.8589,303.1246z"/>
		<path fill="#C28710" d="M1119.2877,305.1597c-1.1221,0-2.0347-0.9125-2.0347-2.0354s0.9126-2.0354,2.0347-2.0354h17.058&#10;&#9;&#9;&#9;c1.1221,0,2.0354,0.9125,2.0354,2.0354s-0.9133,2.0354-2.0354,2.0354H1119.2877z"/>
	</g>
	<g>
		<path fill="#EF4871" d="M1136.3458,277.6321h-96.9508c-4.7015,0-8.5131,3.8115-8.5131,8.5131&#10;&#9;&#9;&#9;c0,4.7017,3.8115,8.5132,8.5131,8.5132h96.9508c4.7017,0,8.5131-3.8115,8.5131-8.5132&#10;&#9;&#9;&#9;C1144.8589,281.4436,1141.0475,277.6321,1136.3458,277.6321z"/>
		<path fill="#DE3E6C" d="M1144.8589,286.1451c0-4.7016-3.8114-8.5131-8.5131-8.5131h-17.0577&#10;&#9;&#9;&#9;c-4.7015,0-8.5131,3.8115-8.5131,8.5131c0,4.7017,3.8115,8.5132,8.5131,8.5132h17.0577&#10;&#9;&#9;&#9;C1141.0475,294.6583,1144.8589,290.8468,1144.8589,286.1451z"/>
		<path fill="#B63156" d="M1119.2877,288.1802c-1.1221,0-2.0347-0.9125-2.0347-2.0354s0.9126-2.0354,2.0347-2.0354h17.058&#10;&#9;&#9;&#9;c1.1221,0,2.0354,0.9125,2.0354,2.0354s-0.9133,2.0354-2.0354,2.0354H1119.2877z"/>
	</g>
	<path fill="#DE3E6C" d="M1097.9543,277.6321c-0.5817,0-18.1576,14.2066-28.0105,22.208c-3.6508,2.9647-8.9937,2.5041-12.085-1.0401&#10;&#9;&#9;l-18.4639-21.1679v-0.0001c0-2.2239,1.8029-4.0267,4.0269-4.0267h68.0498c2.2239,0,4.0267,1.8028,4.0267,4.0267l0,0&#10;&#9;&#9;L1097.9543,277.6321z"/>
	<g>
		<path fill="#CC6B42" d="M1139.1962,332.4831v5.4107c0,2.3301,1.8889,4.219,4.219,4.219h10.5516c2.3301,0,4.219-1.8889,4.219-4.219&#10;&#9;&#9;&#9;v-5.4107H1139.1962z"/>
		<path fill="#CC6B42" d="M944.7885,332.4831v5.4107c0,2.3301,1.8889,4.219,4.2191,4.219h10.5516c2.3301,0,4.219-1.8889,4.219-4.219&#10;&#9;&#9;&#9;v-5.4107H944.7885z"/>
	</g>
</g>
<g transform="matrix(1, 0, 0, 1, -108.11751556396484, -153.5582046508789)">
	<g>
		<path d="M 699.059872 384.600891 A 27.515499 27.515499 0 0 1 671.544373 412.11639 A 27.515499 27.515499 0 0 1 644.028873 384.600891 A 27.515499 27.515499 0 0 1 671.544373 357.085392 A 27.515499 27.515499 0 0 1 699.059872 384.600891 Z" fill="#00AFA0"/>
		<path fill="#009E8B" d="M676.223,399.1252c-15.1963,0-27.5154-12.319-27.5154-27.5154c0-0.8564,0.0515-1.7003,0.1281-2.5368&#10;&#9;&#9;&#9;c-3.0285,4.4204-4.8067,9.7649-4.8067,15.5279c0,15.1964,12.3191,27.5155,27.5154,27.5155c14.34,0,26.1053-10.973,27.3874-24.9786&#10;&#9;&#9;&#9;C693.9745,394.3734,685.6563,399.1252,676.223,399.1252z"/>
	</g>
	<g>
		<path d="M 755.971127 384.600891 A 27.515499 27.515499 0 0 1 728.455627 412.11639 A 27.515499 27.515499 0 0 1 700.940128 384.600891 A 27.515499 27.515499 0 0 1 728.455627 357.085392 A 27.515499 27.515499 0 0 1 755.971127 384.600891 Z" fill="#00AFA0"/>
		<path fill="#009E8B" d="M723.777,399.1252c15.1963,0,27.5154-12.319,27.5154-27.5154c0-0.8564-0.0515-1.7003-0.1281-2.5368&#10;&#9;&#9;&#9;c3.0285,4.4204,4.8067,9.7649,4.8067,15.5279c0,15.1964-12.3191,27.5155-27.5154,27.5155c-14.34,0-26.1053-10.973-27.3874-24.9786&#10;&#9;&#9;&#9;C706.0255,394.3734,714.3437,399.1252,723.777,399.1252z"/>
	</g>
</g>
<g transform="matrix(1, 0, 0, 1, -108.11751556396484, -153.5582046508789)">
	<path fill="#B4B4DA" d="M1235.4257,547.3478H903.7728c-1.8297,0-3.313,1.4833-3.313,3.313v13.7689&#10;&#9;&#9;c0,1.8298,1.4833,3.3131,3.313,3.3131h331.6528c1.8296,0,3.313-1.4833,3.313-3.3131v-13.7689&#10;&#9;&#9;C1238.7386,548.8311,1237.2552,547.3478,1235.4257,547.3478z"/>
	<path d="M 915.458984 567.74292 H 1223.73938 V 793.588913 H 915.458984 V 567.74292 Z" fill="#EAE9F3"/>
	<path d="M 933.11792 580.834473 H 1206.07962 V 632.473873 H 933.11792 V 580.834473 Z" fill="#D3D3EA"/>
	<g>
		<path d="M 933.117981 645.509583 H 1063.092575 V 781.413483 H 933.117981 V 645.509583 Z" fill="#D3D3EA"/>
		<path d="M 1076.105103 645.509583 H 1206.079605 V 781.413483 H 1076.105103 V 645.509583 Z" fill="#D3D3EA"/>
	</g>
	<path fill="#B4B4DA" d="M1050.2015,591.0049v5.6768c0,1.1757,0.9531,2.1288,2.1288,2.1288h34.537&#10;&#9;&#9;c1.1757,0,2.1288-0.9531,2.1288-2.1288v-5.6768c0-1.1757-0.9531-2.1288-2.1288-2.1288h-34.537&#10;&#9;&#9;C1051.1547,588.8761,1050.2015,589.8292,1050.2015,591.0049z"/>
	<g>
		<path fill="#B4B4DA" d="M1094.1981,694.0643h-5.6768c-1.1757,0-2.1288,0.9531-2.1288,2.1288v34.537&#10;&#9;&#9;&#9;c0,1.1757,0.9531,2.1288,2.1288,2.1288h5.6768c1.1757,0,2.1288-0.9531,2.1288-2.1288v-34.537&#10;&#9;&#9;&#9;C1096.3269,695.0175,1095.3738,694.0643,1094.1981,694.0643z"/>
		<path fill="#B4B4DA" d="M1050.6761,694.0643h-5.6768c-1.1758,0-2.1288,0.9531-2.1288,2.1288v34.537&#10;&#9;&#9;&#9;c0,1.1757,0.953,2.1288,2.1288,2.1288h5.6768c1.1757,0,2.1288-0.9531,2.1288-2.1288v-34.537&#10;&#9;&#9;&#9;C1052.8049,695.0175,1051.8518,694.0643,1050.6761,694.0643z"/>
	</g>
</g>
<g transform="matrix(1, 0, 0, 1, -108.11751556396484, -153.5582046508789)">
	<path fill="#F38393" d="M903.8807,723.4271l10.1985,60.2293c0.9711,5.7351,5.9389,9.9324,11.7556,9.9324h134.8124&#10;&#9;&#9;c5.8168,0,10.7845-4.1973,11.7557-9.9324l10.1985-60.2293H903.8807z M935.9905,777.6033c0,1.5659-1.2694,2.8353-2.8353,2.8353&#10;&#9;&#9;c-1.5659,0-2.8353-1.2694-2.8353-2.8353V767.034c0-1.5659,1.2694-2.8352,2.8353-2.8352c1.5659,0,2.8353,1.2693,2.8353,2.8352&#10;&#9;&#9;V777.6033z M948.0077,752.306c0,1.566-1.2694,2.8353-2.8353,2.8353c-1.5659,0-2.8354-1.2693-2.8354-2.8353v-10.5692&#10;&#9;&#9;c0-1.5659,1.2695-2.8352,2.8354-2.8352c1.5659,0,2.8353,1.2693,2.8353,2.8352V752.306z M960.0249,777.6033&#10;&#9;&#9;c0,1.5659-1.2694,2.8353-2.8353,2.8353c-1.5659,0-2.8354-1.2694-2.8354-2.8353V767.034c0-1.5659,1.2695-2.8352,2.8354-2.8352&#10;&#9;&#9;c1.5659,0,2.8353,1.2693,2.8353,2.8352V777.6033z M972.0421,752.306c0,1.566-1.2695,2.8353-2.8353,2.8353&#10;&#9;&#9;s-2.8354-1.2693-2.8354-2.8353v-10.5692c0-1.5659,1.2695-2.8352,2.8354-2.8352s2.8353,1.2693,2.8353,2.8352V752.306z&#10;&#9;&#9; M984.0593,777.6033c0,1.5659-1.2695,2.8353-2.8353,2.8353c-1.5659,0-2.8354-1.2694-2.8354-2.8353V767.034&#10;&#9;&#9;c0-1.5659,1.2695-2.8352,2.8354-2.8352c1.5658,0,2.8353,1.2693,2.8353,2.8352V777.6033z M996.0765,752.306&#10;&#9;&#9;c0,1.566-1.2695,2.8353-2.8354,2.8353c-1.5658,0-2.8353-1.2693-2.8353-2.8353v-10.5692c0-1.5659,1.2695-2.8352,2.8353-2.8352&#10;&#9;&#9;c1.5659,0,2.8354,1.2693,2.8354,2.8352V752.306z M1008.0937,777.6033c0,1.5659-1.2695,2.8353-2.8354,2.8353&#10;&#9;&#9;c-1.5659,0-2.8353-1.2694-2.8353-2.8353V767.034c0-1.5659,1.2694-2.8352,2.8353-2.8352c1.5659,0,2.8354,1.2693,2.8354,2.8352&#10;&#9;&#9;V777.6033z M1020.1109,752.306c0,1.566-1.2695,2.8353-2.8354,2.8353s-2.8353-1.2693-2.8353-2.8353v-10.5692&#10;&#9;&#9;c0-1.5659,1.2694-2.8352,2.8353-2.8352s2.8354,1.2693,2.8354,2.8352V752.306z M1032.1281,777.6033&#10;&#9;&#9;c0,1.5659-1.2694,2.8353-2.8353,2.8353s-2.8353-1.2694-2.8353-2.8353V767.034c0-1.5659,1.2694-2.8352,2.8353-2.8352&#10;&#9;&#9;s2.8353,1.2693,2.8353,2.8352V777.6033z M1044.1453,752.306c0,1.566-1.2694,2.8353-2.8353,2.8353s-2.8353-1.2693-2.8353-2.8353&#10;&#9;&#9;v-10.5692c0-1.5659,1.2694-2.8352,2.8353-2.8352s2.8353,1.2693,2.8353,2.8352V752.306z M1056.1624,777.6033&#10;&#9;&#9;c0,1.5659-1.2694,2.8353-2.8352,2.8353c-1.5659,0-2.8353-1.2694-2.8353-2.8353V767.034c0-1.5659,1.2694-2.8352,2.8353-2.8352&#10;&#9;&#9;c1.5658,0,2.8352,1.2693,2.8352,2.8352V777.6033z"/>
	<path fill="#F16680" d="M1057.4208,723.4271l-10.1985,60.2293c-0.9712,5.7351-5.939,9.9324-11.7556,9.9324h25.1807&#10;&#9;&#9;c5.8168,0,10.7845-4.1973,11.7557-9.9324l10.1985-60.2293H1057.4208z M1056.1624,777.6033c0,1.5659-1.2694,2.8353-2.8352,2.8353&#10;&#9;&#9;c-1.5659,0-2.8353-1.2694-2.8353-2.8353V767.034c0-1.5659,1.2694-2.8352,2.8353-2.8352c1.5658,0,2.8352,1.2693,2.8352,2.8352&#10;&#9;&#9;V777.6033z"/>
	<path fill="#EF4871" d="M1092.35,715.4194H894.1324c-3.265,0-5.9116,2.6467-5.9116,5.9116s2.6467,5.9117,5.9116,5.9117H1092.35&#10;&#9;&#9;c3.2648,0,5.9116-2.6468,5.9116-5.9117S1095.6147,715.4194,1092.35,715.4194z"/>
	<path fill="#DE3E6C" d="M1092.35,715.4193h-28.1188c3.2648,0,5.9116,2.6468,5.9116,5.9116c0,3.265-2.6469,5.9117-5.9116,5.9117&#10;&#9;&#9;h28.1188c3.2648,0,5.9116-2.6467,5.9116-5.9117C1098.2616,718.0661,1095.6147,715.4193,1092.35,715.4193z"/>
	<path fill="#F38393" d="M888.4728,719.7145h54.1639c1.186,0,2.1475-0.9615,2.1475-2.1475c0-1.1862-0.9615-2.1476-2.1475-2.1476&#10;&#9;&#9;h-48.5044C891.4318,715.4193,889.1796,717.2409,888.4728,719.7145z"/>
	<path fill="#F38393" d="M956.541,717.5669L956.541,717.5669c0,1.186,0.9615,2.1476,2.1476,2.1476h9.1939&#10;&#9;&#9;c1.1861,0,2.1476-0.9615,2.1476-2.1476l0,0c0-1.1861-0.9615-2.1476-2.1476-2.1476h-9.1939&#10;&#9;&#9;C957.5024,715.4193,956.541,716.3808,956.541,717.5669z"/>
</g>
<g transform="matrix(1, 0, 0, 1, -108.11751556396484, -153.5582046508789)">
	<path fill="#EF4871" d="M1186.7473,466.8931h-11.7999c-1.7358,0-3.1429,1.4071-3.1429,3.1429v6.1429h18.0858v-6.1429&#10;&#9;&#9;C1189.8903,468.3002,1188.4832,466.8931,1186.7473,466.8931z"/>
	<path fill="#FBAD18" d="M1219.8051,476.1789h-48.0005c-4.6373,0-8.3966,3.7593-8.3966,8.3966v56.8757&#10;&#9;&#9;c0,3.2566,2.6399,5.8965,5.8965,5.8965h53.0006c3.2566,0,5.8966-2.64,5.8966-5.8965v-56.8757&#10;&#9;&#9;C1228.2017,479.9382,1224.4424,476.1789,1219.8051,476.1789z M1219.6305,530.3223h-12.5972v-45.5719h6.7985&#10;&#9;&#9;c3.2025,0,5.7987,2.5961,5.7987,5.7985V530.3223z"/>
	<path fill="#FFCF62" d="M1171.8046,476.1789c-4.6373,0-8.3966,3.7593-8.3966,8.3966v56.8757c0,3.2566,2.64,5.8966,5.8966,5.8966&#10;&#9;&#9;h53.0006c3.2565,0,5.8965-2.64,5.8965-5.8965v-3.9734c0-1.7428-1.4128-3.1556-3.1556-3.1556h-17.1984&#10;&#9;&#9;c-3.8108,0-6.9-3.0892-6.9-6.8999v-43.2862c0-4.3947-3.5626-7.9573-7.9573-7.9573H1171.8046z"/>
	<path d="M 1168.604248 494.893402 H 1192.747349 V 499.322002 H 1168.604248 V 494.893402 Z" fill="#EAE9F3"/>
	<path d="M 1168.604248 502.893494 H 1192.747349 V 507.322093 H 1168.604248 V 502.893494 Z" fill="#EAE9F3"/>
</g>
</svg>